<?xml version="1.0" encoding="UTF-8" standalone="no"?>
<svg
   xmlns:dc="http://purl.org/dc/elements/1.1/"
   xmlns:cc="http://creativecommons.org/ns#"
   xmlns:rdf="http://www.w3.org/1999/02/22-rdf-syntax-ns#"
   xmlns:svg="http://www.w3.org/2000/svg"
   xmlns="http://www.w3.org/2000/svg"
   xmlns:sodipodi="http://sodipodi.sourceforge.net/DTD/sodipodi-0.dtd"
   xmlns:inkscape="http://www.inkscape.org/namespaces/inkscape"
   version="1.1"
   x="0px"
   y="0px"
   viewBox="0 0 100 125"
   enable-background="new 0 0 100 100"
   xml:space="preserve"
   id="svg2"
   inkscape:version="0.48.4 r9939"
   width="100%"
   height="100%"
   sodipodi:docname="noun_94444_cc.svg"><metadata
     id="metadata24"><rdf:RDF><cc:Work
         rdf:about=""><dc:format>image/svg+xml</dc:format><dc:type
           rdf:resource="http://purl.org/dc/dcmitype/StillImage" /><dc:title></dc:title></cc:Work></rdf:RDF></metadata><defs
     id="defs22" /><sodipodi:namedview
     pagecolor="#ffffff"
     bordercolor="#666666"
     borderopacity="1"
     objecttolerance="10"
     gridtolerance="10"
     guidetolerance="10"
     inkscape:pageopacity="0"
     inkscape:pageshadow="2"
     inkscape:window-width="1920"
     inkscape:window-height="1021"
     id="namedview20"
     showgrid="false"
     inkscape:zoom="5.6568543"
     inkscape:cx="-14.465652"
     inkscape:cy="107.87455"
     inkscape:window-x="0"
     inkscape:window-y="27"
     inkscape:window-maximized="1"
     inkscape:current-layer="svg2" /><text
     xml:space="preserve"
     style="font-size:10.81938076px;font-style:normal;font-weight:normal;line-height:87.00000048%;letter-spacing:0px;word-spacing:0px;fill:#ffffff;fill-opacity:1;stroke:none;font-family:Sans"
     x="39.525219"
     y="25.297853"
     id="text3036"
     sodipodi:linespacing="87%"><tspan
       sodipodi:role="line"
       id="tspan3038"
       x="39.525219"
       y="25.297853"
       style="font-style:normal;font-variant:normal;font-weight:normal;font-stretch:normal;line-height:87.00000048%;font-family:Arvo;-inkscape-font-specification:Arvo">Unspoiled</tspan><tspan
       sodipodi:role="line"
       x="39.525219"
       y="34.710716"
       id="tspan3040"
       style="font-style:normal;font-variant:normal;font-weight:normal;font-stretch:normal;line-height:87.00000048%;font-family:Arvo;-inkscape-font-specification:Arvo">Series</tspan></text>
<rect
     style="fill:#000000"
     id="rect3001-3"
     width="94.89859"
     height="38.883202"
     x="2.2785809"
     y="8.3444824" /><text
     xml:space="preserve"
     style="font-size:10.81938076px;font-style:normal;font-weight:normal;line-height:87.00000048%;letter-spacing:0px;word-spacing:0px;fill:#ffffff;fill-opacity:1;stroke:none;font-family:Sans"
     x="38.541664"
     y="25.453739"
     id="text3036-5"
     sodipodi:linespacing="87%"><tspan
       sodipodi:role="line"
       id="tspan3038-4"
       x="38.541664"
       y="25.453739"
       style="font-style:normal;font-variant:normal;font-weight:normal;font-stretch:normal;line-height:87.00000048%;font-family:Arvo;-inkscape-font-specification:Arvo">Unspoiled</tspan><tspan
       sodipodi:role="line"
       x="38.541664"
       y="34.8666"
       id="tspan3040-0"
       style="font-style:normal;font-variant:normal;font-weight:normal;font-stretch:normal;line-height:87.00000048%;font-family:Arvo;-inkscape-font-specification:Arvo">Series</tspan></text>
<rect
     id="rect3010-2"
     height="3.9778311"
     width="2.9336047"
     transform="matrix(0.97488444,-0.22271131,0.21493786,0.97662773,0,0)"
     y="23.199821"
     x="18.443066"
     style="fill:#ffffff" /><rect
     id="rect3016-3"
     height="3.979373"
     width="2.9334719"
     transform="matrix(-0.97492862,0.22251782,-0.21475045,-0.97666895,0,0)"
     y="-39.109772"
     x="-10.625448"
     style="fill:#ffffff" /><path
     id="path3020-1"
     d="m 31.79461,35.926024 c 2.531196,-3.256647 3.654893,-7.601702 2.694356,-11.97042 -0.961361,-4.367869 -3.797618,-7.809282 -7.45112,-9.653891 l 4.756764,21.624311 z"
     inkscape:connector-curvature="0"
     style="fill:#ffffff" /><path
     id="path3022-8"
     d="m 19.185112,37.774625 -2.860041,0.653549 0.505739,2.296575 c 1.007825,0.308519 2.057638,0.499005 3.128718,0.567434 l -0.774416,-3.517558 z"
     inkscape:connector-curvature="0"
     style="fill:#ffffff" /><path
     id="path3024-7"
     d="m 9.8778688,18.218186 c -2.531745,3.256657 -3.655452,7.602838 -2.69463,11.971846 0.961361,4.368429 3.7976172,7.810421 7.4508242,9.654462 L 9.8778688,18.218186 z"
     inkscape:connector-curvature="0"
     style="fill:#ffffff" /><polygon
     id="polygon3026-2"
     points="24.726,48.944 27.775,62.572 37.994,60.278 34.942,46.656 "
     transform="matrix(0.27987513,0,0,0.28514577,6.8423458,12.815813)"
     style="fill:#ffffff" /><path
     id="path3028-1"
     d="m 14.912547,18.347928 -0.825359,-3.753655 c -0.940376,0.528089 -1.809386,1.155698 -2.591922,1.873683 l 0.557797,2.533521 2.859484,-0.653549 z"
     inkscape:connector-curvature="0"
     style="fill:#ffffff" /><path
     id="path3030-9"
     d="m 22.538581,16.60712 2.861159,-0.652701 -0.55723,-2.532952 c -1.008109,-0.308529 -2.055962,-0.499583 -3.128728,-0.567444 l 0.824799,3.753097 z"
     inkscape:connector-curvature="0"
     style="fill:#ffffff" /><polygon
     id="polygon3032-2"
     points="20.14,28.505 23.196,42.13 33.417,39.841 30.362,26.218 "
     transform="matrix(0.27987513,0,0,0.28514577,6.8423458,12.815813)"
     style="fill:#ffffff" /><path
     d="m 27.779256,19.168649 c -2.470216,-0.01386 -7.888671,1.125231 -10.782799,3.052512 0,0 0.975658,13.460737 10.64315,19.495533 9.742398,-5.923433 10.884406,-19.372805 10.884406,-19.372805 -2.870735,-1.959554 -8.274776,-3.160922 -10.744757,-3.17524 z m -0.131143,21.164402 c -8.480824,-5.29411 -9.336917,-17.103249 -9.336917,-17.103249 2.539214,-1.690234 7.292503,-2.688874 9.460027,-2.677057 2.166578,0.01228 6.907343,1.06614 9.425291,2.784557 0,0 -1.001887,11.798457 -9.548401,16.995749 z"
     id="path12-2-3"
     inkscape:connector-curvature="0"
     style="fill:#ffdd55" /><path
     d="m 27.760118,21.535705 c -1.956513,-0.0077 -6.226108,0.89114 -8.508708,2.410691 0,0 0.771265,10.636178 8.409229,15.403925 0.03403,-0.02092 0.06569,-0.04364 0.09948,-0.06477 V 21.535705 z"
     id="path14-2-2"
     inkscape:connector-curvature="0"
     style="fill:#ffdd55" /><path
     style="fill:#000000;fill-opacity:1"
     d="m 27.176896,39.985787 c -0.786904,-0.535575 -1.250789,-0.906801 -1.987969,-1.590883 -3.095648,-2.872672 -5.39465,-7.371575 -6.475016,-12.670921 -0.176799,-0.867222 -0.41207,-2.451832 -0.369704,-2.490046 0.0092,-0.0083 0.233581,-0.139512 0.498635,-0.291597 1.809838,-1.038462 4.751657,-1.923601 7.560605,-2.274846 0.736344,-0.09208 1.876105,-0.09323 2.586179,-0.0026 2.942382,0.375491 6.09593,1.378112 7.903323,2.512735 l 0.279828,0.175667 -0.02958,0.26997 c -0.107262,0.978904 -0.504985,2.902918 -0.846035,4.092765 -1.603363,5.59376 -4.395506,9.785494 -8.179101,12.278962 -0.213382,0.140623 -0.407855,0.267261 -0.432162,0.281418 -0.02431,0.01416 -0.253357,-0.11662 -0.509001,-0.290613 z M 27.74335,39.33025 c 0.0409,-0.0409 0.05303,-2.084001 0.05303,-8.927223 l 0,-8.874191 -0.340723,0 c -0.930447,0 -2.929825,0.356797 -4.4701,0.797708 -1.22272,0.350009 -2.639091,0.92985 -3.420672,1.400371 l -0.342835,0.20639 0.02644,0.223027 c 0.346124,2.919982 1.232475,5.94557 2.460489,8.398951 1.415347,2.827648 3.191311,4.930162 5.528253,6.544745 0.222459,0.153696 0.415409,0.280304 0.428778,0.281351 0.01337,10e-4 0.04817,-0.02196 0.07734,-0.05113 l 0,0 z"
     id="path3110-3"
     inkscape:connector-curvature="0" /></svg>